TITLE ""
FILE "DISC1Track35.mp3" MP3
  TRACK 01 AUDIO
    TITLE "DISC1Track35_01"
    INDEX 01 00:00:00
  TRACK 02 AUDIO
    TITLE "DISC1Track35_02"
    INDEX 01 00:01:43
  TRACK 03 AUDIO
    TITLE "DISC1Track35_03"
    INDEX 01 00:01:61
  TRACK 04 AUDIO
    TITLE "DISC1Track35_04"
    INDEX 01 00:05:60
  TRACK 05 AUDIO
    TITLE "DISC1Track35_05"
    INDEX 01 00:09:29
  TRACK 06 AUDIO
    TITLE "DISC1Track35_06"
    INDEX 01 00:12:41
  TRACK 07 AUDIO
    TITLE "DISC1Track35_07"
    INDEX 01 00:12:53
  TRACK 08 AUDIO
    TITLE "DISC1Track35_08"
    INDEX 01 00:18:42
  TRACK 09 AUDIO
    TITLE "DISC1Track35_09"
    INDEX 01 00:23:41
  TRACK 10 AUDIO
    TITLE "DISC1Track35_10"
    INDEX 01 00:28:22
  TRACK 11 AUDIO
    TITLE "DISC1Track35_11"
    INDEX 01 00:28:34
  TRACK 12 AUDIO
    TITLE "DISC1Track35_12"
    INDEX 01 00:30:35
  TRACK 13 AUDIO
    TITLE "DISC1Track35_13"
    INDEX 01 00:33:04
  TRACK 14 AUDIO
    TITLE "DISC1Track35_14"
    INDEX 01 00:35:16
  TRACK 15 AUDIO
    TITLE "DISC1Track35_15"
    INDEX 01 00:35:32
  TRACK 16 AUDIO
    TITLE "DISC1Track35_16"
    INDEX 01 00:40:00
  TRACK 17 AUDIO
    TITLE "DISC1Track35_17"
    INDEX 01 00:44:12
  TRACK 18 AUDIO
    TITLE "DISC1Track35_18"
    INDEX 01 00:47:61
  TRACK 19 AUDIO
    TITLE "DISC1Track35_19"
    INDEX 01 00:48:01
  TRACK 20 AUDIO
    TITLE "DISC1Track35_20"
    INDEX 01 00:51:06
  TRACK 21 AUDIO
    TITLE "DISC1Track35_21"
    INDEX 01 00:54:12
  TRACK 22 AUDIO
    TITLE "DISC1Track35_22"
    INDEX 01 00:56:60
  TRACK 23 AUDIO
    TITLE "DISC1Track35_23"
    INDEX 01 00:57:00
  TRACK 24 AUDIO
    TITLE "DISC1Track35_24"
    INDEX 01 01:00:09
  TRACK 25 AUDIO
    TITLE "DISC1Track35_25"
    INDEX 01 01:03:21
  TRACK 26 AUDIO
    TITLE "DISC1Track35_26"
    INDEX 01 01:06:01
  TRACK 27 AUDIO
    TITLE "DISC1Track35_27"
    INDEX 01 01:06:17
  TRACK 28 AUDIO
    TITLE "DISC1Track35_28"
    INDEX 01 01:07:58
  TRACK 29 AUDIO
    TITLE "DISC1Track35_29"
    INDEX 01 01:09:62
  TRACK 30 AUDIO
    TITLE "DISC1Track35_30"
    INDEX 01 01:11:38
  TRACK 31 AUDIO
    TITLE "DISC1Track35_31"
    INDEX 01 01:11:53
  TRACK 32 AUDIO
    TITLE "DISC1Track35_32"
    INDEX 01 01:14:34
  TRACK 33 AUDIO
    TITLE "DISC1Track35_33"
    INDEX 01 01:17:42
  TRACK 34 AUDIO
    TITLE "DISC1Track35_34"
    INDEX 01 01:20:31
  TRACK 35 AUDIO
    TITLE "DISC1Track35_35"
    INDEX 01 01:20:41
  TRACK 36 AUDIO
    TITLE "DISC1Track35_36"
    INDEX 01 01:23:66
  TRACK 37 AUDIO
    TITLE "DISC1Track35_37"
    INDEX 01 01:27:09
  TRACK 38 AUDIO
    TITLE "DISC1Track35_38"
    INDEX 01 01:29:67
  TRACK 39 AUDIO
    TITLE "DISC1Track35_39"
    INDEX 01 01:30:06
  TRACK 40 AUDIO
    TITLE "DISC1Track35_40"
    INDEX 01 01:34:23
  TRACK 41 AUDIO
    TITLE "DISC1Track35_41"
    INDEX 01 01:38:27
  TRACK 42 AUDIO
    TITLE "DISC1Track35_42"
    INDEX 01 01:42:09
  TRACK 43 AUDIO
    TITLE "DISC1Track35_43"
    INDEX 01 01:42:27
  TRACK 44 AUDIO
    TITLE "DISC1Track35_44"
    INDEX 01 01:45:50
  TRACK 45 AUDIO
    TITLE "DISC1Track35_45"
    INDEX 01 01:48:72
